<svg xmlns="http://www.w3.org/2000/svg" viewBox="0 0 32 32" width="32" height="32">
  <defs>
    <linearGradient id="g" x1="0" y1="0" x2="1" y2="1">
      <stop offset="0%" stop-color="#a855f7"/>
      <stop offset="100%" stop-color="#ec4899"/>
    </linearGradient>
  </defs>
  <rect width="32" height="32" rx="7" fill="url(#g)"/>
  <path d="M6.5 21.5q0-3.2 1.8-5.1 1.8-1.9 4.6-1.9 1.7 0 2.9.8 1.2.8 1.7 2.2h-.1l.1-2.7h0q0-2.1-1.1-3.3-1.1-1.2-3-1.2-1.4 0-2.5.6-1 .6-1.6 1.7L7 11.1q.8-1.4 2.3-2.2 1.5-.8 3.4-.8 2.8 0 4.4 1.6 1.6 1.6 1.6 4.5v7.3h-2.2l-.2-2h-.1q-.6 1-1.8 1.6-1.2.6-2.6.6-2.2 0-3.5-1.2-1.3-1.2-1.3-3.2zm2.4-.1q0 1.2.8 1.9.8.7 2.1.7 1.6 0 2.7-1.1 1.1-1.1 1.1-2.7 0-1.6-1.1-2.6-1.1-1-2.8-1-1.6 0-2.7 1.1-1.1 1-1.1 2.7z" fill="white"/>
</svg>
